# xmcd
#
# Track frame offsets:
#	150
#	11940
#	23670
#	36082
#	46950
#	59272
#	71697
#	81600
#	92232
#	102180
#	113207
#	127342
#	141140
#	149950
#	164562
#	176750
#	187047
#	201680
#	214062
#	223290
#	236240
#	247582
#	257677
#	265372
#	276192
#	289225
#	301460
#	314697
#
# Disc length: 4362 seconds
#
# Revision: 1
# Processed by: cddbd v1.5.2PL0 Copyright (c) Steve Scherf et al.
# Submitted via: audiograbber 1.83.01
#
DISCID=d311081c
DTITLE=The Easy Riders - Marianne Vol. 3
DYEAR=1900
DGENRE=Blues
TTITLE0=Saturday's Child
TTITLE1=Love Is A Golden Ring
TTITLE2=Ride Away Vaquero
TTITLE3=Take Off Your Old Coat
TTITLE4=Il Fait Si Beau
TTITLE5=Glory, Glory
TTITLE6=My Pretty Quadroon
TTITLE7=Quit Kickin' My Dog Around
TTITLE8=Forever New
TTITLE9=Poor Boy
TTITLE10=The Lights Of Town
TTITLE11=The Cry Of The Wild Goose
TTITLE12=Young In Love
TTITLE13=Ballad Of The Alamo
TTITLE14=The Green Leaves Of Summer
TTITLE15=Remember The Alamo
TTITLE16=Laredo
TTITLE17=Green Grow The Lilacs
TTITLE18=Long Lean Delilah
TTITLE19=Leina
TTITLE20=Plain Old Plainsmen
TTITLE21=The Girl I Left Behind
TTITLE22=Here's To The Ladies
TTITLE23=Tennessee Babe
TTITLE24=Mi Amor, Mi Corazon
TTITLE25=Haven't We Met Before?
TTITLE26=Silver And Gold
TTITLE27=Go Tell Her For Me
EXTD=
EXTT0=
EXTT1=
EXTT2=
EXTT3=
EXTT4=
EXTT5=
EXTT6=
EXTT7=
EXTT8=
EXTT9=
EXTT10=
EXTT11=
EXTT12=
EXTT13=
EXTT14=
EXTT15=
EXTT16=
EXTT17=
EXTT18=
EXTT19=
EXTT20=
EXTT21=
EXTT22=
EXTT23=
EXTT24=
EXTT25=
EXTT26=
EXTT27=
PLAYORDER=
